<svg xmlns="http://www.w3.org/2000/svg" width="1680" height="1050" viewBox="0 0 1680 1050" role="img" aria-labelledby="title desc">
<title id="title">Temporal Rift pure SVG gameplay concept</title><desc id="desc">A vector-only illustrated card-game interface. Three public future events, a private five-card hand, faction panel, player scores and a selected action. Static visual concept, not connected gameplay.</desc>
<defs>
<linearGradient id="bg" x2=".9" y2="1"><stop stop-color="#0d1324"/><stop offset=".5" stop-color="#121329"/><stop offset="1" stop-color="#090f1e"/></linearGradient>
<linearGradient id="panel" x2="0" y2="1"><stop stop-color="#1e253a"/><stop offset="1" stop-color="#101729"/></linearGradient>
<linearGradient id="card" x2=".9" y2="1"><stop stop-color="#263650"/><stop offset=".5" stop-color="#17263e"/><stop offset="1" stop-color="#111a2c"/></linearGradient>
<radialGradient id="nebula"><stop stop-color="#40366d" stop-opacity=".45"/><stop offset="1" stop-color="#181a34" stop-opacity="0"/></radialGradient>
<radialGradient id="reactorGlow"><stop stop-color="#baf4e1"/><stop offset=".12" stop-color="#65baa9" stop-opacity=".8"/><stop offset="1" stop-color="#36688b" stop-opacity="0"/></radialGradient>
<linearGradient id="gold" x2="1" y2="1"><stop stop-color="#ebd6a7"/><stop offset="1" stop-color="#9f7954"/></linearGradient>
<linearGradient id="button"><stop stop-color="#7be3d2"/><stop offset="1" stop-color="#47b5bc"/></linearGradient>
<pattern id="grid" width="56" height="56" patternUnits="userSpaceOnUse"><path d="M56 0H0V56" fill="none" stroke="#9eb7cf" stroke-opacity=".028"/></pattern>
<filter id="shadow" x="-40%" y="-40%" width="180%" height="190%"><feDropShadow dx="0" dy="8" stdDeviation="12" flood-color="#000713" flood-opacity=".65"/></filter>
<filter id="glow" x="-60%" y="-60%" width="220%" height="220%"><feGaussianBlur stdDeviation="3"/></filter>
<symbol id="rift" viewBox="0 0 100 100"><g fill="none" stroke="currentColor" stroke-width="2"><path d="M50 5L85 25V75L50 95 15 75V25Z"/><path d="M50 18L73 32V68L50 82 27 68V32Z"/><path d="M60 24L40 45 57 48 39 76M50 5V18M85 25L73 32M15 75L27 68"/></g></symbol>
<symbol id="eye" viewBox="0 0 100 100"><g fill="none" stroke="currentColor" stroke-width="2"><circle cx="50" cy="50" r="30"/><path d="M10 50Q50 17 90 50Q50 83 10 50Z"/><circle cx="50" cy="50" r="12"/><path d="M50 5V14M50 86V95M5 50H14M86 50H95M18 18L25 25M75 75L82 82M82 18L75 25M25 75L18 82"/></g></symbol>
<symbol id="push" viewBox="0 0 100 100"><g fill="none" stroke="currentColor" stroke-width="2"><circle cx="50" cy="50" r="34"/><path d="M50 76V24M30 44L50 24 70 44M27 66V55M73 66V55"/><circle cx="50" cy="50" r="43" stroke-dasharray="2 8"/></g></symbol>
<symbol id="suppress" viewBox="0 0 100 100"><g fill="none" stroke="currentColor" stroke-width="2"><circle cx="50" cy="50" r="34"/><path d="M50 24V76M30 56L50 76 70 56M27 34V45M73 34V45"/><path d="M15 15L25 25M75 75L85 85M85 15L75 25M25 75L15 85"/></g></symbol>
<symbol id="scan" viewBox="0 0 100 100"><g fill="none" stroke="currentColor" stroke-width="2"><circle cx="50" cy="50" r="34"/><circle cx="50" cy="50" r="19"/><path d="M50 16V50L75 25M50 7V16M50 84V93M7 50H16M84 50H93"/></g></symbol>
<symbol id="nullify" viewBox="0 0 100 100"><g fill="none" stroke="currentColor" stroke-width="2"><path d="M50 9L85 29V71L50 91 15 71V29Z"/><circle cx="50" cy="50" r="24"/><path d="M32 32L68 68M68 32L32 68"/></g></symbol>
<symbol id="collide" viewBox="0 0 100 100"><g fill="none" stroke="currentColor" stroke-width="2"><circle cx="35" cy="50" r="25"/><circle cx="65" cy="50" r="25"/><path d="M50 9V26M50 74V91M6 50H15M85 50H94"/><path d="M46 34L55 45 45 54 54 66"/></g></symbol>
<symbol id="reactor" viewBox="0 0 340 155">
<rect width="340" height="155" fill="#152937"/><ellipse cx="177" cy="73" rx="117" ry="83" fill="url(#reactorGlow)"/>
<g fill="#182c3a" stroke="#548394" stroke-width="1"><path d="M0 130L32 105 52 110 64 83 88 82 100 109 126 119V155H0Z"/><path d="M235 155V104L253 95 271 105 283 73H295L307 112 340 100V155Z"/></g>
<g fill="none" stroke="#7cb2b3" stroke-width="1.4"><ellipse cx="176" cy="74" rx="49" ry="19" transform="rotate(-30 176 74)"/><ellipse cx="176" cy="74" rx="49" ry="19" transform="rotate(30 176 74)"/><ellipse cx="176" cy="74" rx="18" ry="48"/><circle cx="176" cy="74" r="37"/><path d="M118 139L145 109M206 109L235 139M160 113L154 155M192 113L198 155"/></g>
<circle cx="176" cy="74" r="9" fill="#b2f4d9"/><circle cx="176" cy="74" r="4" fill="#efffec"/>
<g stroke="#537586" stroke-width="1" opacity=".5"><path d="M15 27H74M31 34H86M266 24H329M277 32H316M5 146H336"/></g>
</symbol>
<symbol id="delegate" viewBox="0 0 340 155">
<rect width="340" height="155" fill="#25223a"/><circle cx="247" cy="51" r="33" fill="#bb9472" opacity=".2"/><circle cx="247" cy="51" r="21" fill="#bb9472" opacity=".14"/>
<path d="M0 123L46 105 76 111 94 87 144 109 187 94 236 112 289 95 340 115V155H0Z" fill="#181d30"/>
<g fill="#293046" stroke="#6b7083" stroke-width="1"><path d="M77 137V55L135 36 193 55V137Z"/><path d="M85 58H185M89 65V135M110 65V135M134 65V135M157 65V135M180 65V135"/><path d="M64 137H206L220 145H49Z"/></g>
<g fill="#111a2c"><circle cx="270" cy="101" r="9"/><path d="M250 150L253 122Q270 105 282 123L297 155Z"/></g>
<g fill="none" stroke="#cba57d" stroke-width="1" opacity=".55"><path d="M21 18H93M25 25H69M230 125L253 103M8 148H337"/></g>
</symbol>
<symbol id="pact" viewBox="0 0 340 155">
<rect width="340" height="155" fill="#222b3b"/><path d="M0 99L39 76 62 86 112 31 167 98 210 53 277 101 313 76 340 86V155H0Z" fill="#344455"/><path d="M79 69L112 31 143 69 119 58 110 52 102 62Z" fill="#80909b" opacity=".5"/>
<path d="M0 132L60 100 110 125 168 98 225 132 292 109 340 134V155H0Z" fill="#152332"/>
<g fill="none" stroke="#8494aa" stroke-width="1.3"><path d="M15 138Q164 44 321 129M17 141H326"/><path d="M52 118V140M95 98V140M140 89V140M186 91V140M231 103V140M278 118V140"/></g>
<path d="M173 91L180 105 168 116 180 127 174 141" stroke="#d2ae7f" stroke-width="2" fill="none"/><circle cx="257" cy="37" r="13" fill="#b4bbc5" opacity=".18"/>
</symbol>
</defs>
<g font-family="Segoe UI,Arial,sans-serif">
<rect width="1680" height="1050" fill="url(#bg)"/><rect width="1680" height="1050" fill="url(#grid)"/>
<ellipse cx="857" cy="426" rx="830" ry="540" fill="url(#nebula)"/>
<circle cx="73" cy="43" r="1.2" fill="#b4c2dd" opacity="0.3"/><circle cx="270" cy="182" r="0.7" fill="#b4c2dd" opacity="0.12"/><circle cx="467" cy="321" r="0.7" fill="#b4c2dd" opacity="0.12"/><circle cx="664" cy="460" r="0.7" fill="#b4c2dd" opacity="0.3"/><circle cx="861" cy="599" r="0.7" fill="#b4c2dd" opacity="0.12"/><circle cx="1058" cy="738" r="1.2" fill="#b4c2dd" opacity="0.12"/><circle cx="1255" cy="877" r="0.7" fill="#b4c2dd" opacity="0.3"/><circle cx="1452" cy="1016" r="0.7" fill="#b4c2dd" opacity="0.12"/><circle cx="1649" cy="105" r="0.7" fill="#b4c2dd" opacity="0.12"/><circle cx="166" cy="244" r="0.7" fill="#b4c2dd" opacity="0.3"/><circle cx="363" cy="383" r="1.2" fill="#b4c2dd" opacity="0.12"/><circle cx="560" cy="522" r="0.7" fill="#b4c2dd" opacity="0.12"/><circle cx="757" cy="661" r="0.7" fill="#b4c2dd" opacity="0.3"/><circle cx="954" cy="800" r="0.7" fill="#b4c2dd" opacity="0.12"/><circle cx="1151" cy="939" r="0.7" fill="#b4c2dd" opacity="0.12"/><circle cx="1348" cy="28" r="1.2" fill="#b4c2dd" opacity="0.3"/><circle cx="1545" cy="167" r="0.7" fill="#b4c2dd" opacity="0.12"/><circle cx="62" cy="306" r="0.7" fill="#b4c2dd" opacity="0.12"/><circle cx="259" cy="445" r="0.7" fill="#b4c2dd" opacity="0.3"/><circle cx="456" cy="584" r="0.7" fill="#b4c2dd" opacity="0.12"/><circle cx="653" cy="723" r="1.2" fill="#b4c2dd" opacity="0.12"/><circle cx="850" cy="862" r="0.7" fill="#b4c2dd" opacity="0.3"/><circle cx="1047" cy="1001" r="0.7" fill="#b4c2dd" opacity="0.12"/><circle cx="1244" cy="90" r="0.7" fill="#b4c2dd" opacity="0.12"/><circle cx="1441" cy="229" r="0.7" fill="#b4c2dd" opacity="0.3"/><circle cx="1638" cy="368" r="1.2" fill="#b4c2dd" opacity="0.12"/><circle cx="155" cy="507" r="0.7" fill="#b4c2dd" opacity="0.12"/><circle cx="352" cy="646" r="0.7" fill="#b4c2dd" opacity="0.3"/><circle cx="549" cy="785" r="0.7" fill="#b4c2dd" opacity="0.12"/><circle cx="746" cy="924" r="0.7" fill="#b4c2dd" opacity="0.12"/><circle cx="943" cy="13" r="1.2" fill="#b4c2dd" opacity="0.3"/><circle cx="1140" cy="152" r="0.7" fill="#b4c2dd" opacity="0.12"/><circle cx="1337" cy="291" r="0.7" fill="#b4c2dd" opacity="0.12"/><circle cx="1534" cy="430" r="0.7" fill="#b4c2dd" opacity="0.3"/><circle cx="51" cy="569" r="0.7" fill="#b4c2dd" opacity="0.12"/><circle cx="248" cy="708" r="1.2" fill="#b4c2dd" opacity="0.12"/><circle cx="445" cy="847" r="0.7" fill="#b4c2dd" opacity="0.3"/><circle cx="642" cy="986" r="0.7" fill="#b4c2dd" opacity="0.12"/><circle cx="839" cy="75" r="0.7" fill="#b4c2dd" opacity="0.12"/><circle cx="1036" cy="214" r="0.7" fill="#b4c2dd" opacity="0.3"/><circle cx="1233" cy="353" r="1.2" fill="#b4c2dd" opacity="0.12"/><circle cx="1430" cy="492" r="0.7" fill="#b4c2dd" opacity="0.12"/><circle cx="1627" cy="631" r="0.7" fill="#b4c2dd" opacity="0.3"/><circle cx="144" cy="770" r="0.7" fill="#b4c2dd" opacity="0.12"/><circle cx="341" cy="909" r="0.7" fill="#b4c2dd" opacity="0.12"/><circle cx="538" cy="1048" r="1.2" fill="#b4c2dd" opacity="0.3"/><circle cx="735" cy="137" r="0.7" fill="#b4c2dd" opacity="0.12"/><circle cx="932" cy="276" r="0.7" fill="#b4c2dd" opacity="0.12"/><circle cx="1129" cy="415" r="0.7" fill="#b4c2dd" opacity="0.3"/><circle cx="1326" cy="554" r="0.7" fill="#b4c2dd" opacity="0.12"/><circle cx="1523" cy="693" r="1.2" fill="#b4c2dd" opacity="0.12"/><circle cx="40" cy="832" r="0.7" fill="#b4c2dd" opacity="0.3"/><circle cx="237" cy="971" r="0.7" fill="#b4c2dd" opacity="0.12"/><circle cx="434" cy="60" r="0.7" fill="#b4c2dd" opacity="0.12"/><circle cx="631" cy="199" r="0.7" fill="#b4c2dd" opacity="0.3"/><circle cx="828" cy="338" r="1.2" fill="#b4c2dd" opacity="0.12"/><circle cx="1025" cy="477" r="0.7" fill="#b4c2dd" opacity="0.12"/><circle cx="1222" cy="616" r="0.7" fill="#b4c2dd" opacity="0.3"/><circle cx="1419" cy="755" r="0.7" fill="#b4c2dd" opacity="0.12"/><circle cx="1616" cy="894" r="0.7" fill="#b4c2dd" opacity="0.12"/><circle cx="133" cy="1033" r="1.2" fill="#b4c2dd" opacity="0.3"/><circle cx="330" cy="122" r="0.7" fill="#b4c2dd" opacity="0.12"/><circle cx="527" cy="261" r="0.7" fill="#b4c2dd" opacity="0.12"/><circle cx="724" cy="400" r="0.7" fill="#b4c2dd" opacity="0.3"/><circle cx="921" cy="539" r="0.7" fill="#b4c2dd" opacity="0.12"/><circle cx="1118" cy="678" r="1.2" fill="#b4c2dd" opacity="0.12"/><circle cx="1315" cy="817" r="0.7" fill="#b4c2dd" opacity="0.3"/><circle cx="1512" cy="956" r="0.7" fill="#b4c2dd" opacity="0.12"/><circle cx="29" cy="45" r="0.7" fill="#b4c2dd" opacity="0.12"/><circle cx="226" cy="184" r="0.7" fill="#b4c2dd" opacity="0.3"/><circle cx="423" cy="323" r="1.2" fill="#b4c2dd" opacity="0.12"/><circle cx="620" cy="462" r="0.7" fill="#b4c2dd" opacity="0.12"/><circle cx="817" cy="601" r="0.7" fill="#b4c2dd" opacity="0.3"/><circle cx="1014" cy="740" r="0.7" fill="#b4c2dd" opacity="0.12"/><circle cx="1211" cy="879" r="0.7" fill="#b4c2dd" opacity="0.12"/><path d="M36 92H1644M36 152H1644" stroke="#313447"/><g color="#dbc599"><use href="#rift" x="38" y="21" width="48" height="48"/></g><text x="103" y="46" font-size="28" fill="#ede5d6" font-family="Georgia,serif" letter-spacing="4">TEMPORAL RIFT</text><text x="104" y="69" font-size="10" fill="#8991a7" letter-spacing="2">MULTIPLAYER STRATEGY  /  GAME 024</text><rect x="683" y="31" width="108" height="25" rx="12" fill="#182238" stroke="#30405a" /><text x="695" y="48" font-size="10" fill="#d8c293" font-weight="600" letter-spacing="1">ERA II</text><rect x="804" y="31" width="155" height="25" rx="12" fill="#182238" stroke="#30405a" /><text x="816" y="48" font-size="10" fill="#8bdfd3" font-weight="600" letter-spacing="1">ROUND 3 OF 3</text><text x="1285" y="46" font-size="10" fill="#929bb0" letter-spacing="1.4">DECISION WINDOW</text><text x="1480" y="49" font-size="28" fill="#ead7b0" font-family="Georgia,serif">00:43</text><circle cx="1624" cy="39" r="4" fill="#81c8ac"/><circle cx="63" cy="122" r="16" fill="#314244" stroke="#9bbdb0"/><text x="57" y="127" font-size="12" fill="#c5e7d4" font-weight="600">Y</text><text x="91" y="118" font-size="12" fill="#d4d9e5" font-weight="600" letter-spacing="1">YOU</text><text x="91" y="136" font-size="10" fill="#858fa6" >Your private seat</text><text x="273" y="128" font-size="21" fill="#dfcfb5" font-family="Georgia,serif">8</text><text x="303" y="127" font-size="9" fill="#858fa6" letter-spacing="1">POINTS</text><circle cx="611" cy="122" r="16" fill="#262d42" stroke="#505572"/><text x="605" y="127" font-size="12" fill="#b9c0d1" font-weight="600">N</text><text x="639" y="118" font-size="12" fill="#d4d9e5" font-weight="600" letter-spacing="1">NORA</text><text x="639" y="136" font-size="10" fill="#858fa6" >Faction hidden</text><text x="821" y="128" font-size="21" fill="#dfcfb5" font-family="Georgia,serif">6</text><text x="851" y="127" font-size="9" fill="#858fa6" letter-spacing="1">POINTS</text><circle cx="1133" cy="122" r="16" fill="#262d42" stroke="#505572"/><text x="1127" y="127" font-size="12" fill="#b9c0d1" font-weight="600">E</text><text x="1161" y="118" font-size="12" fill="#d4d9e5" font-weight="600" letter-spacing="1">ELI</text><text x="1161" y="136" font-size="10" fill="#858fa6" >Faction hidden</text><text x="1343" y="128" font-size="21" fill="#dfcfb5" font-family="Georgia,serif">5</text><text x="1373" y="127" font-size="9" fill="#858fa6" letter-spacing="1">POINTS</text><rect x="36" y="177" width="210" height="465" rx="14" fill="url(#panel)" stroke="#373b50" filter="url(#shadow)"/><text x="60" y="205" font-size="10" fill="#919ab0" letter-spacing="2">YOUR FACTION</text><g color="#d5bd88"><use href="#eye" x="99" y="221" width="83" height="83"/></g><text x="141" y="333" font-size="21" fill="#ebd8af" font-family="Georgia,serif" text-anchor="middle" letter-spacing="2">PROPHETS</text><text x="141" y="358" font-size="12" fill="#a5adbe" text-anchor="middle">Preserve the written future.</text><path d="M59 384H223" stroke="#393e53"/><text x="59" y="413" font-size="10" fill="#9fa7b9" letter-spacing="1">YOUR SCORE</text><text x="59" y="454" font-size="37" fill="#e6d4b1" font-family="Georgia,serif">8</text><text x="92" y="449" font-size="12" fill="#8c96ac" >/ 20 threshold</text><rect x="58" y="481" width="164" height="25" rx="12" fill="#182238" stroke="#30405a" /><text x="70" y="498" font-size="10" fill="#d6c9ad" font-weight="600" letter-spacing="1">PRIVATE INTENT</text><text x="59" y="533" font-size="12" fill="#ccd0dc" >Written outcome</text><text x="59" y="557" font-size="12" fill="#929cb1" >Reactor ignition</text><text x="59" y="576" font-size="12" fill="#929cb1" >succeeds</text><circle cx="65" cy="609" r="3" fill="#b1c0d2"/><text x="78" y="613" font-size="10" fill="#8691a8" >Visible only to you</text><text x="38" y="680" font-size="9" fill="#808da5" letter-spacing="1.2">FACTIONS IN THIS GAME</text><text x="38" y="705" font-size="11" fill="#b7becf" >Prophets · Erasers · Weavers</text><text x="272" y="199" font-size="11" fill="#c8b991" letter-spacing="2.2">THE ACTIVE FUTURES</text><text x="1350" y="199" font-size="11" fill="#8998b2" text-anchor="end">Bands from Round 2</text><path d="M307 664C474 708 1081 708 1299 665" fill="none" stroke="#61547c" stroke-width="1" stroke-dasharray="4 6" opacity=".7"/><rect x="270" y="219" width="340" height="440" rx="12" fill="url(#panel)" stroke="#424559" filter="url(#shadow)"/><use href="#delegate" x="271" y="220" width="338" height="155"/><path d="M288 239H347M288 239V251M592 239H576M592 239V251" fill="none" stroke="#c7a384" opacity=".6"/><text x="291" y="397" font-size="9" fill="#c7a384" letter-spacing="2">FUTURE 01</text><text x="291" y="425" font-size="21" fill="#eee3d5" font-family="Georgia,serif">The Assassination Attempt</text><text x="291" y="451" font-size="21" fill="#eee3d5" font-family="Georgia,serif">on the Peace Delegate</text><rect x="287" y="473" width="306" height="44" rx="7" fill="#171f32" stroke="#30384e" /><circle cx="303" cy="495" r="5" fill="none" stroke="#7987a2"/><text x="316" y="499" font-size="11" fill="#c5ccda" >Delegate survives</text><text x="563" y="499" font-size="9" fill="#9ebbc8" text-anchor="end" letter-spacing=".8">MEDIUM</text><rect x="287" y="527" width="306" height="44" rx="7" fill="#171f32" stroke="#30384e" /><circle cx="303" cy="549" r="5" fill="none" stroke="#7987a2"/><text x="316" y="553" font-size="11" fill="#c5ccda" >Negotiations collapse</text><text x="563" y="553" font-size="9" fill="#888eaf" text-anchor="end" letter-spacing=".8">LOW</text><rect x="287" y="581" width="306" height="44" rx="7" fill="#171f32" stroke="#30384e" /><circle cx="303" cy="603" r="5" fill="none" stroke="#7987a2"/><text x="316" y="607" font-size="11" fill="#c5ccda" >Attacker becomes a martyr</text><text x="563" y="607" font-size="9" fill="#9ebbc8" text-anchor="end" letter-spacing=".8">MEDIUM</text><text x="289" y="647" font-size="10" fill="#7e8ba4" letter-spacing=".6">Choose an outcome to target</text><rect x="630" y="219" width="340" height="440" rx="12" fill="url(#panel)" stroke="#5f9899" filter="url(#shadow)"/><use href="#reactor" x="631" y="220" width="338" height="155"/><path d="M648 239H707M648 239V251M952 239H936M952 239V251" fill="none" stroke="#79cabf" opacity=".6"/><text x="651" y="397" font-size="9" fill="#79cabf" letter-spacing="2">FUTURE 02</text><text x="651" y="425" font-size="21" fill="#eee3d5" font-family="Georgia,serif">The Quantum Reactor’s</text><text x="651" y="451" font-size="21" fill="#eee3d5" font-family="Georgia,serif">First Ignition</text><rect x="647" y="473" width="306" height="44" rx="7" fill="#214044" stroke="#81c8bc" /><circle cx="663" cy="495" r="5" fill="#8be1ce" stroke="#c2ffec"/><text x="676" y="499" font-size="11" fill="#e1f8ec" >Ignition succeeds</text><text x="923" y="499" font-size="9" fill="#9ebbc8" text-anchor="end" letter-spacing=".8">MEDIUM</text><rect x="647" y="527" width="306" height="44" rx="7" fill="#171f32" stroke="#30384e" /><circle cx="663" cy="549" r="5" fill="none" stroke="#7987a2"/><text x="676" y="553" font-size="11" fill="#c5ccda" >Facility is destroyed</text><text x="923" y="553" font-size="9" fill="#888eaf" text-anchor="end" letter-spacing=".8">LOW</text><rect x="647" y="581" width="306" height="44" rx="7" fill="#171f32" stroke="#30384e" /><circle cx="663" cy="603" r="5" fill="none" stroke="#7987a2"/><text x="676" y="607" font-size="11" fill="#c5ccda" >Temporal anomaly</text><text x="923" y="607" font-size="9" fill="#dbc196" text-anchor="end" letter-spacing=".8">HIGH</text><text x="649" y="647" font-size="10" fill="#92dccc" letter-spacing=".6">SELECTED TARGET</text><rect x="990" y="219" width="340" height="440" rx="12" fill="url(#panel)" stroke="#424559" filter="url(#shadow)"/><use href="#pact" x="991" y="220" width="338" height="155"/><path d="M1008 239H1067M1008 239V251M1312 239H1296M1312 239V251" fill="none" stroke="#9daecf" opacity=".6"/><text x="1011" y="397" font-size="9" fill="#9daecf" letter-spacing="2">FUTURE 03</text><text x="1011" y="425" font-size="21" fill="#eee3d5" font-family="Georgia,serif">The Collapse of the</text><text x="1011" y="451" font-size="21" fill="#eee3d5" font-family="Georgia,serif">Northern Trade Pact</text><rect x="1007" y="473" width="306" height="44" rx="7" fill="#171f32" stroke="#30384e" /><circle cx="1023" cy="495" r="5" fill="none" stroke="#7987a2"/><text x="1036" y="499" font-size="11" fill="#c5ccda" >Emergency renegotiation</text><text x="1283" y="499" font-size="9" fill="#888eaf" text-anchor="end" letter-spacing=".8">LOW</text><rect x="1007" y="527" width="306" height="44" rx="7" fill="#171f32" stroke="#30384e" /><circle cx="1023" cy="549" r="5" fill="none" stroke="#7987a2"/><text x="1036" y="553" font-size="11" fill="#c5ccda" >Rival factions fill the vacuum</text><text x="1283" y="553" font-size="9" fill="#9ebbc8" text-anchor="end" letter-spacing=".8">MEDIUM</text><rect x="1007" y="581" width="306" height="44" rx="7" fill="#171f32" stroke="#30384e" /><circle cx="1023" cy="603" r="5" fill="none" stroke="#7987a2"/><text x="1036" y="607" font-size="11" fill="#c5ccda" >A splinter agreement forms</text><text x="1283" y="607" font-size="9" fill="#9ebbc8" text-anchor="end" letter-spacing=".8">MEDIUM</text><text x="1009" y="647" font-size="10" fill="#7e8ba4" letter-spacing=".6">Choose an outcome to target</text><rect x="1376" y="219" width="268" height="440" rx="12" fill="url(#panel)" stroke="#3b4157" /><text x="1398" y="250" font-size="10" fill="#9faabe" letter-spacing="1.6">YOUR ACTION</text><g color="#99dfd7"><use href="#push" x="1469" y="272" width="82" height="82"/></g><text x="1510" y="386" font-size="25" fill="#e3e9e5" font-family="Georgia,serif" text-anchor="middle" letter-spacing="2">PUSH</text><text x="1510" y="410" font-size="11" fill="#8ed8cc" text-anchor="middle" letter-spacing=".8">GRADE II  ·  +20 SHIFT</text><path d="M1398 432H1622" stroke="#3c4459"/><text x="1398" y="459" font-size="9" fill="#8e9aaf" letter-spacing="1.5">TARGET</text><text x="1398" y="484" font-size="15" fill="#dddccf" font-family="Georgia,serif">The Quantum Reactor</text><text x="1398" y="510" font-size="12" fill="#b0d5cc" >Ignition succeeds</text><text x="1398" y="551" font-size="11" fill="#a1adc0" >Increase this outcome’s weight.</text><text x="1398" y="572" font-size="11" fill="#a1adc0" >Other weights redistribute.</text><text x="1398" y="612" font-size="10" fill="#7f8ba2" >Exact live weights remain hidden.</text><text x="1398" y="631" font-size="10" fill="#7f8ba2" >Choose your card and target.</text><text x="272" y="716" font-size="11" fill="#c8b991" letter-spacing="2">YOUR HAND</text><text x="1350" y="716" font-size="11" fill="#8c9ab2" text-anchor="end">5 cards · choose one action</text><rect x="270" y="733" width="208" height="257" rx="12" fill="url(#card)" stroke="#8ad7c9" filter="url(#shadow)"/><rect x="279" y="742" width="190" height="239" rx="6" fill="none" stroke="#528c87" /><text x="289" y="764" font-size="9" fill="#92e0ce" letter-spacing="1.2">SELECTED</text><rect x="426" y="750" width="34" height="25" rx="12" fill="#182238" stroke="#30405a" /><text x="438" y="767" font-size="10" fill="#8ed9cf" font-weight="600" letter-spacing="1">II</text><circle cx="374" cy="838" r="59" fill="#254a50" opacity=".55"/><g color="#8ed9cf" opacity="1"><use href="#push" x="328" y="792" width="92" height="92"/></g><text x="374" y="913" font-size="21" fill="#e3e4dc" font-family="Georgia,serif" text-anchor="middle" letter-spacing="1.3">PUSH</text><text x="374" y="938" font-size="11" fill="#a5b4c7" text-anchor="middle">Shift an outcome</text><text x="374" y="956" font-size="11" fill="#a5b4c7" text-anchor="middle">by +20.</text><rect x="487" y="741" width="208" height="257" rx="12" fill="url(#card)" stroke="#3d4c64" filter="url(#shadow)"/><rect x="496" y="750" width="190" height="239" rx="6" fill="none" stroke="#2d3b53" /><text x="506" y="772" font-size="9" fill="#8393ad" letter-spacing="1.2">CARD</text><rect x="643" y="758" width="34" height="25" rx="12" fill="#182238" stroke="#30405a" /><text x="655" y="775" font-size="10" fill="#9db8d5" font-weight="600" letter-spacing="1">I</text><circle cx="591" cy="846" r="59" fill="#1f2c45" opacity=".55"/><g color="#9db8d5" opacity="1"><use href="#suppress" x="545" y="800" width="92" height="92"/></g><text x="591" y="921" font-size="21" fill="#e3e4dc" font-family="Georgia,serif" text-anchor="middle" letter-spacing="1.3">SUPPRESS</text><text x="591" y="946" font-size="11" fill="#a5b4c7" text-anchor="middle">Shift an outcome</text><text x="591" y="964" font-size="11" fill="#a5b4c7" text-anchor="middle">by −10.</text><rect x="704" y="741" width="208" height="257" rx="12" fill="url(#card)" stroke="#3d4c64" filter="url(#shadow)"/><rect x="713" y="750" width="190" height="239" rx="6" fill="none" stroke="#2d3b53" /><text x="723" y="772" font-size="9" fill="#8b849c" letter-spacing="1.2">UNAVAILABLE</text><rect x="860" y="758" width="34" height="25" rx="12" fill="#182238" stroke="#30405a" /><text x="872" y="775" font-size="10" fill="#c7b38a" font-weight="600" letter-spacing="1">II</text><circle cx="808" cy="846" r="59" fill="#1f2c45" opacity=".55"/><g color="#c7b38a" opacity="0.5"><use href="#scan" x="762" y="800" width="92" height="92"/></g><text x="808" y="921" font-size="21" fill="#999dac" font-family="Georgia,serif" text-anchor="middle" letter-spacing="1.3">SCAN</text><text x="808" y="946" font-size="11" fill="#7f8597" text-anchor="middle">Earn exact</text><text x="808" y="964" font-size="11" fill="#7f8597" text-anchor="middle">probability intel.</text><rect x="921" y="741" width="208" height="257" rx="12" fill="url(#card)" stroke="#3d4c64" filter="url(#shadow)"/><rect x="930" y="750" width="190" height="239" rx="6" fill="none" stroke="#2d3b53" /><text x="940" y="772" font-size="9" fill="#8393ad" letter-spacing="1.2">CARD</text><rect x="1077" y="758" width="34" height="25" rx="12" fill="#182238" stroke="#30405a" /><text x="1089" y="775" font-size="10" fill="#b5a2cf" font-weight="600" letter-spacing="1">I</text><circle cx="1025" cy="846" r="59" fill="#1f2c45" opacity=".55"/><g color="#b5a2cf" opacity="1"><use href="#nullify" x="979" y="800" width="92" height="92"/></g><text x="1025" y="921" font-size="21" fill="#e3e4dc" font-family="Georgia,serif" text-anchor="middle" letter-spacing="1.3">NULLIFY</text><text x="1025" y="946" font-size="11" fill="#a5b4c7" text-anchor="middle">Cancel an eligible</text><text x="1025" y="964" font-size="11" fill="#a5b4c7" text-anchor="middle">opponent card.</text><rect x="1138" y="741" width="208" height="257" rx="12" fill="url(#card)" stroke="#3d4c64" filter="url(#shadow)"/><rect x="1147" y="750" width="190" height="239" rx="6" fill="none" stroke="#2d3b53" /><text x="1157" y="772" font-size="9" fill="#8393ad" letter-spacing="1.2">CARD</text><rect x="1294" y="758" width="34" height="25" rx="12" fill="#182238" stroke="#30405a" /><text x="1306" y="775" font-size="10" fill="#d0a797" font-weight="600" letter-spacing="1">I</text><circle cx="1242" cy="846" r="59" fill="#1f2c45" opacity=".55"/><g color="#d0a797" opacity="1"><use href="#collide" x="1196" y="800" width="92" height="92"/></g><text x="1242" y="921" font-size="21" fill="#e3e4dc" font-family="Georgia,serif" text-anchor="middle" letter-spacing="1.3">COLLIDE</text><text x="1242" y="946" font-size="11" fill="#a5b4c7" text-anchor="middle">Bring two outcome</text><text x="1242" y="964" font-size="11" fill="#a5b4c7" text-anchor="middle">weights together.</text><rect x="1376" y="741" width="268" height="249" rx="12" fill="#121b2d" stroke="#344459" /><text x="1398" y="773" font-size="10" fill="#93a1b7" letter-spacing="1.5">ROUND STATUS</text><text x="1398" y="804" font-size="14" fill="#d6dce5" >Round closes at deadline</text><circle cx="1402" cy="830" r="4" fill="#78bca6"/><text x="1415" y="834" font-size="11" fill="#9eafc0" >You have not submitted</text><rect x="1396" y="863" width="228" height="50" rx="8" fill="url(#button)" stroke="#82ddd3" /><text x="1510" y="894" font-size="12" fill="#112d35" text-anchor="middle" font-weight="700" letter-spacing="1.3">CONFIRM ACTION</text><text x="1510" y="944" font-size="11" fill="#8d9bb0" text-anchor="middle">One action this round</text><text x="1510" y="969" font-size="10" fill="#76849b" text-anchor="middle">Private until round closure</text><path d="M36 1014H1644" stroke="#2d344a"/><text x="38" y="1037" font-size="9" fill="#6d7b92" letter-spacing="1.5">VECTOR-ONLY VISUAL CONCEPT</text><text x="1644" y="1037" font-size="10" fill="#7b899d" text-anchor="end">SVG paths · gradients · text · filters · no embedded artwork</text></g></svg>
